# xmcd
#
# Track frame offsets:
#	150
#	26413
#	49070
#	78813
#	98227
#	116444
#	140462
#	162404
#	183027
#	199328
#	221650
#	239560
#	258580
#
# Disc length: 3717 seconds
#
# Revision: 0
# Processed by: cddbd v1.4PL0 Copyright (c) Steve Scherf et al.
# Submitted via: EZCDDA 4.3.3.2
#
DISCID=b10e830d
DTITLE=BB King - Deuces Wild
DYEAR=1900
DGENRE=
TTITLE0=If You Love Me w/Van Morrison
TTITLE1=The Thrill Is Gone  w/Tracy Chapman
TTITLE2=Rock Me Baby  w/Eric Clapton
TTITLE3=Please Send Me Someone  To Love  w/Mick Hucknall
TTITLE4=Baby I Love You   w/Bonnie Rait
TTITLE5=Ain't Nobody Home  w/D'Angelo
TTITLE6=There Must Be A Better World Somewhere  w/Dr. John
TTITLE7=Confessin' The Blues  w/Marty Stuart
TTITLE8=Paying The Cost To The Boss  w/Rolling Stones
TTITLE9=Dangerous Mood  w/Joe Cocker
TTITLE10=Keep It Coming  w/Heavy D
TTITLE11=Cryin' Won't Help You Babe  w/David Gilmore and Paul Carrack
TTITLE12=Night Life  w/Willie Nelson
EXTD=
EXTT0=
EXTT1=
EXTT2=
EXTT3=
EXTT4=
EXTT5=
EXTT6=
EXTT7=
EXTT8=
EXTT9=
EXTT10=
EXTT11=
EXTT12=
PLAYORDER=
